<svg xmlns="http://www.w3.org/2000/svg" width="800" height="400" viewBox="0 0 800 400">
  <rect width="800" height="400" fill="#f5f5f0" rx="8"/>
  <rect x="40" y="40" width="160" height="60" fill="#fe551b" rx="6" opacity="0.9"/>
  <text x="120" y="76" text-anchor="middle" fill="white" font-family="system-ui" font-size="14" font-weight="600">Dispatch Script</text>
  <line x1="120" y1="100" x2="120" y2="150" stroke="#333" stroke-width="2" marker-end="url(#arrow)"/>
  <rect x="40" y="150" width="160" height="60" fill="#333" rx="6"/>
  <text x="120" y="186" text-anchor="middle" fill="white" font-family="system-ui" font-size="14" font-weight="600">RabbitMQ Queue</text>
  <line x1="200" y1="165" x2="320" y2="120" stroke="#333" stroke-width="2" marker-end="url(#arrow)"/>
  <line x1="200" y1="180" x2="320" y2="180" stroke="#333" stroke-width="2" marker-end="url(#arrow)"/>
  <line x1="200" y1="195" x2="320" y2="240" stroke="#333" stroke-width="2" marker-end="url(#arrow)"/>
  <rect x="320" y="95" width="140" height="50" fill="#fe551b" rx="6" opacity="0.7"/>
  <text x="390" y="126" text-anchor="middle" fill="white" font-family="system-ui" font-size="13" font-weight="500">Worker A (GPU)</text>
  <rect x="320" y="155" width="140" height="50" fill="#fe551b" rx="6" opacity="0.7"/>
  <text x="390" y="186" text-anchor="middle" fill="white" font-family="system-ui" font-size="13" font-weight="500">Worker B (GPU)</text>
  <rect x="320" y="215" width="140" height="50" fill="#fe551b" rx="6" opacity="0.7"/>
  <text x="390" y="246" text-anchor="middle" fill="white" font-family="system-ui" font-size="13" font-weight="500">Worker C (CPU)</text>
  <line x1="460" y1="120" x2="560" y2="180" stroke="#333" stroke-width="2" marker-end="url(#arrow)"/>
  <line x1="460" y1="180" x2="560" y2="180" stroke="#333" stroke-width="2" marker-end="url(#arrow)"/>
  <line x1="460" y1="240" x2="560" y2="180" stroke="#333" stroke-width="2" marker-end="url(#arrow)"/>
  <rect x="560" y="150" width="180" height="60" fill="#333" rx="6"/>
  <text x="650" y="186" text-anchor="middle" fill="white" font-family="system-ui" font-size="14" font-weight="600">Sentinel / Complete</text>
  <text x="400" y="360" text-anchor="middle" fill="#888" font-family="system-ui" font-size="12" font-style="italic">Replace this placeholder with your own architecture diagram</text>
  <defs>
    <marker id="arrow" viewBox="0 0 10 10" refX="9" refY="5" markerWidth="6" markerHeight="6" orient="auto-start-reverse">
      <path d="M 0 0 L 10 5 L 0 10 z" fill="#333"/>
    </marker>
  </defs>
</svg>
